<?xml version="1.0" standalone="no"?>
<!DOCTYPE svg PUBLIC "-//W3C//DTD SVG 20010904//EN"
 "http://www.w3.org/TR/2001/REC-SVG-20010904/DTD/svg10.dtd">
<svg version="1.0" xmlns="http://www.w3.org/2000/svg"
 width="1300.000000pt" height="1300.000000pt" viewBox="0 0 1300.000000 1300.000000"
 preserveAspectRatio="xMidYMid meet">
<metadata>
Created by potrace 1.14, written by Peter Selinger 2001-2017
</metadata>
<g transform="translate(0.000000,1300.000000) scale(0.100000,-0.100000)"
fill="#000000" stroke="none">
<path d="M5531 11939 c-48 -29 -65 -72 -64 -164 0 -91 20 -174 69 -292 53
-129 31 -156 -119 -155 -145 2 -200 12 -510 93 -328 87 -395 98 -562 95 -154
-3 -219 -17 -322 -67 -59 -29 -122 -86 -124 -112 0 -7 -2 -21 -4 -32 -9 -45
42 -118 166 -235 190 -180 238 -254 223 -346 -7 -50 -32 -90 -86 -139 -98 -91
-205 -117 -523 -130 -276 -11 -348 -18 -483 -47 -158 -33 -293 -103 -327 -168
-62 -120 23 -279 195 -363 88 -44 154 -64 390 -118 253 -58 464 -133 544 -194
114 -87 99 -237 -32 -305 -22 -12 -99 -36 -169 -55 -168 -43 -222 -72 -268
-145 -31 -50 -46 -99 -46 -163 -2 -111 64 -196 205 -266 110 -55 129 -62 339
-126 100 -31 201 -65 224 -76 24 -10 45 -19 49 -19 18 0 157 -78 201 -113 56
-46 73 -73 73 -117 0 -63 -98 -119 -385 -216 -93 -32 -180 -64 -193 -72 -13
-8 -30 -31 -38 -50 -21 -52 1 -120 65 -197 131 -156 135 -168 70 -258 -75
-106 -102 -201 -79 -287 12 -43 66 -120 86 -120 8 0 14 -4 14 -9 0 -5 33 -19
73 -32 59 -20 92 -24 182 -23 61 0 126 3 145 5 45 7 85 -7 103 -34 8 -12 26
-67 40 -122 65 -255 139 -358 256 -358 97 -1 175 57 312 228 81 102 126 142
197 177 57 28 72 31 155 31 217 0 349 -120 401 -366 24 -112 13 -390 -20 -499
-3 -9 -7 -25 -9 -36 -9 -46 -135 -412 -165 -477 -43 -95 -70 -157 -70 -161 0
-2 -41 -89 -91 -192 -79 -163 -125 -251 -284 -547 -49 -90 -184 -338 -195
-355 -25 -42 -191 -349 -242 -449 -122 -237 -219 -528 -263 -786 -15 -91 -20
-182 -19 -385 0 -187 4 -244 22 -342 34 -179 86 -338 163 -497 102 -211 206
-348 364 -481 30 -25 210 -173 231 -189 6 -5 47 -30 90 -57 43 -26 90 -55 104
-64 36 -24 211 -98 310 -132 86 -29 219 -62 320 -79 64 -10 494 -13 590 -4
120 12 400 98 422 129 4 6 8 7 8 3 0 -20 295 174 384 252 157 139 318 356 409
552 83 179 112 264 122 349 3 30 8 73 11 95 12 80 6 260 -10 320 -18 71 -48
159 -71 212 -89 200 -186 368 -277 478 -67 82 -209 216 -268 254 -70 43 -104
48 -106 14 -1 -13 3 -23 7 -23 5 0 9 -9 9 -19 0 -11 3 -21 8 -23 23 -10 142
-291 158 -373 50 -256 34 -467 -51 -679 -121 -303 -379 -547 -685 -650 -80
-27 -110 -34 -215 -51 -44 -7 -254 -8 -300 -1 -189 30 -387 112 -530 221 -43
32 -164 150 -207 201 -44 53 -125 195 -158 278 -55 139 -72 226 -76 391 -5
215 27 361 119 543 39 77 165 263 247 364 51 63 332 346 396 398 30 24 67 56
83 70 15 14 56 47 92 75 35 27 70 55 77 62 7 7 17 13 21 13 4 0 16 8 27 18 49
44 618 423 762 507 9 5 31 20 49 32 17 13 36 23 42 23 6 0 11 5 11 10 0 6 5
10 11 10 12 0 469 301 559 368 30 22 75 56 100 74 241 176 561 478 659 622 8
12 18 23 21 26 17 14 148 215 185 285 47 86 91 188 99 226 3 13 15 60 26 104
26 104 35 191 35 345 -1 221 -33 409 -115 660 -53 160 -190 422 -267 505 -10
11 -36 43 -57 70 -47 60 -188 200 -271 267 -173 142 -208 164 -485 304 -362
184 -527 252 -813 335 -78 23 -146 45 -152 49 -11 8 -172 62 -195 65 -18 3
-58 18 -120 47 -132 60 -245 170 -180 175 11 1 20 -2 20 -8 0 -5 6 -9 13 -9 6
0 44 -16 82 -36 39 -20 71 -35 73 -35 1 1 19 -6 40 -15 20 -9 42 -17 47 -18 6
-1 19 -7 31 -13 11 -7 31 -13 45 -15 13 -2 30 -7 37 -11 6 -5 12 -6 12 -3 0 3
12 1 26 -4 29 -11 181 -24 266 -22 67 1 253 37 306 59 20 8 66 28 102 45 109
50 171 61 291 54 122 -8 128 -9 263 -37 194 -40 361 -117 513 -236 124 -97
132 -101 178 -107 47 -6 190 39 355 112 223 98 355 180 403 249 58 83 19 169
-93 209 -60 21 -226 26 -325 9 -109 -18 -199 -12 -255 15 -88 45 -264 160
-375 247 -5 5 -41 33 -80 63 -38 30 -72 57 -75 60 -3 3 -27 24 -55 45 -27 22
-52 42 -55 45 -3 3 -34 30 -70 60 -36 30 -67 57 -70 60 -3 3 -25 23 -50 45
-155 136 -244 223 -265 260 -14 22 -51 106 -84 185 -164 401 -345 662 -561
810 -48 32 -115 72 -130 75 -3 1 -23 10 -44 19 -96 43 -186 58 -371 62 -99 2
-196 6 -215 8 -93 13 -199 71 -410 226 -232 170 -289 196 -349 159z"/>
</g>
</svg>
