<svg xmlns="http://www.w3.org/2000/svg" viewBox="0 0 400 577.778"><path fill="#FFF" fill-rule="evenodd" d="M156.133 47.667c-3.067 3.367-2.872 10.042.543 18.578 2.825 7.06 2.263 7.977-4.889 7.977-5.92 0-10.269-.78-22.454-4.03-20.581-5.49-30.693-5.809-39.654-1.25-7.828 3.982-7.334 8.226 1.967 16.911 10.805 10.089 12.373 14.57 7.133 20.397-4.357 4.846-8.318 5.906-25.668 6.866-30.487 1.688-40.596 7.432-33.751 19.18 3.305 5.674 8.26 7.832 29.314 12.765C83.988 148.649 92 153.342 92 158.723c0 5.306-2.598 7.362-12.621 9.989-10.173 2.666-13.619 6.14-13.591 13.701.027 7.464 5.776 11.761 22.656 16.937 13.743 4.214 19.477 6.822 23.445 10.663 5.408 5.236 2.65 7.784-15.07 13.925-12.31 4.266-13.48 7.32-5.954 15.543 4.53 4.951 4.777 6.119 2.085 9.891-3.199 4.483-3.817 6.06-3.829 9.774-.025 8.196 6.499 12.029 19.29 11.334 7.74-.421 7.735-.425 9.607 7.064 4.635 18.544 12.666 20.693 24.193 6.474 6.842-8.439 10.018-10.416 16.672-10.381 17.855.095 23.379 20.022 13.591 49.03-5.851 17.341-11.215 28.406-33.071 68.222-11.723 21.356-14.576 27.314-17.862 37.302-9.798 29.786-6.453 60.726 8.894 82.253 8.647 12.129 26.447 24.83 42.606 30.402 15.066 5.195 38.262 5.813 51.432 1.37 20.907-7.054 35.951-21.351 45.497-43.238 3.488-7.998 4.018-10.793 4.02-21.2l.001-8.667-1.691-4.667c-5.716-15.769-16.387-31.046-26.036-37.273-5.781-3.732-6.015-2.822-1.607 6.228 17.463 35.852-5.218 73.945-43.99 73.883-37.315-.059-61.161-37.953-44.966-71.454 10.103-20.9 29.571-38.386 74.521-66.937 73.183-46.482 89.943-71.497 78.615-117.335-6.314-25.547-21.679-43.896-48.16-57.513-17.319-8.905-21.823-10.722-45.344-18.291-12.599-4.054-17.108-6.097-20.463-9.269-4.326-4.091-3.269-4.345 3.901-.937 9.66 4.592 15.225 6 23.736 6.006 7.716.005 12.15-1.074 22.712-5.526 3.561-1.501 7.13-1.816 13.225-1.165 14.721 1.572 22.677 4.853 35.017 14.44 4.136 3.214 5.835 3.097 16.444-1.129 14.991-5.973 22.987-11.506 22.982-15.905-.005-5.349-6.691-7.922-17.485-6.73-9.22 1.018-9.488 1.024-11.751.273-7.139-2.372-25.813-16.546-45.235-34.337-4.856-4.447-5.828-5.9-8.418-12.584-6.503-16.781-16.262-31.068-25.469-37.286-7.767-5.246-12.94-6.673-25.862-7.137-12.549-.45-13.563-.857-27.072-10.861-9.553-7.075-13.164-8.461-15.462-5.938"/></svg>